HIERARCHY
ROOT Hips
{
	OFFSET 14.658700 -1.743397 44.686901
	CHANNELS 6 Xposition Yposition Zposition Zrotation Xrotation Yrotation
	JOINT Chest
	{
		OFFSET -0.825500 0.895800 5.069500
		CHANNELS 6 Xposition Yposition Zposition Zrotation Xrotation Yrotation
		JOINT Chest2
		{
			OFFSET 0.000000 0.000000 4.622200
			CHANNELS 6 Xposition Yposition Zposition Zrotation Xrotation Yrotation
			JOINT Neck
			{
				OFFSET 0.000000 0.000001 10.755798
				CHANNELS 6 Xposition Yposition Zposition Zrotation Xrotation Yrotation
				JOINT Head
				{
					OFFSET 0.000000 0.000000 2.173897
					CHANNELS 6 Xposition Yposition Zposition Zrotation Xrotation Yrotation
					End Site
					{
						OFFSET 0.000000 0.000001 10.006599
					}
				}
			}
			JOINT LeftCollar
			{
				OFFSET 2.539400 -1.380899 6.761002
				CHANNELS 6 Xposition Yposition Zposition Zrotation Xrotation Yrotation
				JOINT LeftShoulder
				{
					OFFSET 5.407000 0.000000 0.000000
					CHANNELS 6 Xposition Yposition Zposition Zrotation Xrotation Yrotation
					JOINT LeftElbow
					{
						OFFSET 0.000000 -0.000001 -10.687000
						CHANNELS 6 Xposition Yposition Zposition Zrotation Xrotation Yrotation
						JOINT LeftWrist
						{
							OFFSET 0.000000 -0.000001 -13.346901
							CHANNELS 6 Xposition Yposition Zposition Zrotation Xrotation Yrotation
							End Site
							{
								OFFSET 0.000000 -0.000000 -2.173901
							}
						}
					}
				}
			}
			JOINT RightCollar
			{
				OFFSET -2.411400 -2.842699 7.518600
				CHANNELS 6 Xposition Yposition Zposition Zrotation Xrotation Yrotation
				JOINT RightShoulder
				{
					OFFSET -4.245500 0.000000 0.000000
					CHANNELS 6 Xposition Yposition Zposition Zrotation Xrotation Yrotation
					JOINT RightElbow
					{
						OFFSET 0.000000 -0.000001 -10.446701
						CHANNELS 6 Xposition Yposition Zposition Zrotation Xrotation Yrotation
						JOINT RightWrist
						{
							OFFSET 0.000000 -0.000001 -12.218899
							CHANNELS 6 Xposition Yposition Zposition Zrotation Xrotation Yrotation
							End Site
							{
								OFFSET 0.000000 0.000000 -2.173901
							}
						}
					}
				}
			}
		}
	}
	JOINT LeftHip
	{
		OFFSET 2.346700 0.301800 -2.502800
		CHANNELS 6 Xposition Yposition Zposition Zrotation Xrotation Yrotation
		JOINT LeftKnee
		{
			OFFSET 0.000000 -0.000002 -20.597000
			CHANNELS 6 Xposition Yposition Zposition Zrotation Xrotation Yrotation
			JOINT LeftAnkle
			{
				OFFSET 0.000000 -0.000001 -17.157499
				CHANNELS 6 Xposition Yposition Zposition Zrotation Xrotation Yrotation
				End Site
				{
					OFFSET 0.000000 -9.063900 0.000001
				}
			}
		}
	}
	JOINT RightHip
	{
		OFFSET -1.908600 -0.007900 -2.706001
		CHANNELS 6 Xposition Yposition Zposition Zrotation Xrotation Yrotation
		JOINT RightKnee
		{
			OFFSET 0.000000 -0.000002 -20.198500
			CHANNELS 6 Xposition Yposition Zposition Zrotation Xrotation Yrotation
			JOINT RightAnkle
			{
				OFFSET 0.000000 -0.000001 -17.295700
				CHANNELS 6 Xposition Yposition Zposition Zrotation Xrotation Yrotation
				End Site
				{
					OFFSET 0.000000 -8.113500 0.000001
				}
			}
		}
	}
}
MOTION
Frames: 6
Frame Time: 0.041667
27.164101 24.144600 37.815800 -1483.079846 6.763229 1.047831 -0.825498 0.895800 5.069508 -0.059133 -7.249517 13.741234 0.000001 -0.000001 4.622200 -1.414886 -1.424819 -0.041188 -0.000006 -0.000001 10.755814 50.927229 -8.971435 -19.800601 -0.000006 0.000001 2.173907 4.724951 -1.169880 5.316235 2.539400 -1.380900 6.761003 5.951493 -4.748932 -3.985853 5.406998 -0.000004 -0.000006 180.057474 -134.227028 89.925021 -0.000000 0.000001 -10.686999 86.267687 -8.418847 14.385808 -0.000003 0.000009 -13.346893 -46.350470 -14.873989 -42.570749 -2.411404 -2.842701 7.518605 -6.636315 -17.599716 28.773087 -4.245496 0.000004 0.000001 -773.848521 -120.737582 -700.236075 -0.000002 0.000000 -10.446704 -83.687501 -48.466285 -106.037198 0.000020 -0.000004 -12.218895 19.753218 -9.666336 60.110419 2.346699 0.301807 -2.502793 85.301147 -43.524243 55.997579 -0.000000 0.000004 -20.596996 212.648255 36.256222 94.076287 -0.000002 -0.000005 -17.157501 -308.967569 4.342529 31.190551 -1.908602 -0.007897 -2.705998 -23.592788 -24.075107 -32.628213 0.000002 -0.000003 -20.198500 93.181327 62.728013 -61.626557 0.000003 -0.000001 -17.295704 -31.983392 -2.114217 1.275766
27.127300 24.092903 37.799595 -1485.140815 6.461046 1.147744 -0.825495 0.895802 5.069502 0.204700 -6.440442 13.583059 0.000001 0.000002 4.622195 -1.606489 -1.475530 -0.012475 -0.000002 -0.000000 10.755807 51.266092 -8.749887 -19.520254 0.000004 0.000002 2.173896 4.459020 -1.248933 5.430928 2.539402 -1.380899 6.760998 6.659222 -5.057460 -4.363397 5.406993 -0.000002 0.000007 180.690537 -135.747701 89.976828 0.000002 0.000001 -10.687002 84.679756 -8.737949 13.742975 -0.000004 0.000004 -13.346897 -49.224043 -14.914947 -45.292566 -2.411400 -2.842699 7.518600 -5.312899 -18.299704 28.597908 -4.245502 0.000002 -0.000003 -776.113958 -120.500110 -702.225901 0.000004 0.000001 -10.446712 -78.723818 -47.803644 -100.475293 0.000003 0.000004 -12.218894 25.089488 -8.645817 59.627196 2.346700 0.301804 -2.502802 83.380470 -44.234498 56.060902 0.000001 0.000002 -20.597010 216.574999 38.807608 93.386875 0.000002 -0.000002 -17.157501 -311.555418 4.149157 30.036495 -1.908598 -0.007894 -2.706004 -24.013569 -23.663218 -32.522851 0.000001 -0.000005 -20.198505 95.488299 62.231889 -63.763183 0.000003 -0.000004 -17.295706 -31.468273 -2.223958 0.998142
27.082300 23.998306 37.785992 -1487.320902 6.086410 1.225714 -0.825498 0.895799 5.069499 0.714712 -5.426152 13.155113 -0.000001 0.000001 4.622199 -1.927875 -1.655384 0.045904 -0.000002 0.000008 10.755813 51.709713 -8.310429 -18.820074 -0.000001 0.000002 2.173893 4.450789 -1.108653 5.388758 2.539401 -1.380891 6.761004 7.608256 -5.413854 -4.375143 5.406996 0.000000 0.000006 180.980574 -137.039317 89.893431 0.000001 0.000005 -10.686996 82.396834 -8.984800 12.881417 -0.000004 0.000009 -13.346898 -51.937708 -14.988946 -47.983821 -2.411405 -2.842694 7.518602 -4.267190 -19.228955 28.930755 -4.245493 0.000003 -0.000003 -779.799255 -119.547435 -705.734432 -0.000003 -0.000003 -10.446698 -74.203674 -46.545622 -94.330991 0.000002 -0.000002 -12.218894 30.657366 -9.074410 60.332304 2.346697 0.301802 -2.502794 82.254267 -44.372905 56.337104 -0.000003 0.000002 -20.596998 220.027345 40.870561 92.324220 -0.000004 0.000003 -17.157499 -314.187254 4.265426 28.591269 -1.908600 -0.007899 -2.705998 -23.896078 -23.354631 -32.091729 0.000001 -0.000008 -20.198507 96.623408 61.968756 -65.372868 0.000001 -0.000003 -17.295700 -30.683877 -2.253099 0.572555
27.025999 23.889704 37.770195 -1489.563062 5.841372 1.081879 -0.825500 0.895801 5.069503 1.407169 -4.461100 12.950740 0.000001 0.000001 4.622200 -2.212237 -1.853150 0.025046 -0.000003 0.000002 10.755804 51.967327 -7.801222 -17.808231 0.000001 0.000003 2.173902 4.444451 -1.087699 5.200342 2.539399 -1.380897 6.761008 8.498287 -5.839519 -4.373519 5.406996 -0.000003 0.000004 181.242471 -138.629973 90.034905 -0.000002 0.000004 -10.686996 80.320026 -9.196749 11.855505 0.000001 0.000007 -13.346906 -55.287386 -14.811322 -51.447065 -2.411404 -2.842698 7.518605 -3.407325 -20.401596 29.687106 -4.245502 -0.000001 0.000006 -784.768846 -118.169977 -710.492451 -0.000001 -0.000001 -10.446695 -70.144349 -45.823480 -88.262621 -0.000001 -0.000000 -12.218894 35.715927 -9.271976 61.587631 2.346698 0.301802 -2.502790 81.413403 -44.332248 56.709988 -0.000001 -0.000002 -20.596996 223.653588 42.664538 90.997005 -0.000002 -0.000003 -17.157499 -316.807014 4.452268 27.395020 -1.908601 -0.007899 -2.705997 -23.362664 -23.074674 -31.273937 0.000003 -0.000008 -20.198502 97.109560 61.495854 -66.290367 0.000000 -0.000003 -17.295702 -30.254610 -2.132956 -0.140440
26.948498 23.765001 37.762394 -1491.836695 5.587438 1.062534 -0.825499 0.895797 5.069498 2.175585 -3.537752 12.582380 -0.000001 -0.000001 4.622203 -2.589297 -2.018610 0.093905 -0.000002 0.000002 10.755808 52.254250 -7.323430 -16.915776 0.000002 0.000001 2.173908 4.406587 -1.002982 4.913725 2.539399 -1.380896 6.761005 9.166086 -5.830999 -4.115107 5.406996 -0.000002 0.000001 181.416436 -139.692969 89.681736 -0.000002 0.000007 -10.686996 78.563896 -9.076217 10.679929 0.000001 0.000011 -13.346897 -59.036972 -14.634952 -53.983145 -2.411402 -2.842700 7.518601 -4.591736 -18.165991 29.516895 -4.245502 0.000003 -0.000004 -784.549788 -118.454769 -709.399512 0.000003 0.000004 -10.446699 -67.209505 -45.644682 -82.686707 0.000005 0.000005 -12.218904 40.219695 -8.879441 62.174406 2.346700 0.301799 -2.502799 79.009600 -45.825655 55.720004 0.000002 0.000004 -20.597002 229.481652 45.117556 89.169609 -0.000001 -0.000002 -17.157501 -319.689927 5.114061 25.878574 -1.908599 -0.007903 -2.706001 -22.801186 -22.711853 -30.468801 -0.000001 -0.000007 -20.198500 97.089807 61.223248 -66.857648 0.000000 -0.000004 -17.295704 -29.505171 -2.050039 -0.925073
26.846798 23.615904 37.758801 -1494.102570 5.361466 1.025149 -0.825507 0.895796 5.069491 2.968416 -2.742908 12.242164 0.000001 -0.000003 4.622192 -2.879324 -2.205582 0.113215 0.000000 0.000002 10.755815 52.436568 -6.760807 -16.127508 -0.000001 -0.000002 2.173908 4.421823 -0.949210 4.787020 2.539404 -1.380900 6.761010 9.570927 -5.529713 -3.604762 5.406993 -0.000001 0.000008 181.739504 -140.953767 89.202291 -0.000006 0.000004 -10.686997 76.446763 -9.023373 9.564652 -0.000000 0.000004 -13.346905 -62.244327 -14.230570 -57.414632 -2.411398 -2.842697 7.518611 -4.967855 -18.569391 29.357779 -4.245495 0.000000 -0.000002 -787.964282 -117.873301 -713.369710 -0.000004 0.000001 -10.446698 -63.882677 -44.358404 -77.112761 0.000001 -0.000000 -12.218900 44.780124 -9.112887 63.030413 2.346694 0.301795 -2.502808 79.906854 -44.343767 56.793737 0.000003 0.000003 -20.596996 231.904457 47.923148 87.251008 -0.000004 -0.000002 -17.157497 -322.636963 5.935808 24.690575 -1.908606 -0.007904 -2.706006 -22.117360 -22.320828 -29.572318 0.000003 -0.000007 -20.198502 96.241423 61.445727 -66.790760 0.000005 -0.000001 -17.295702 -28.429623 -1.886655 -1.504919
